# xmcd
#
# Track frame offsets:
#	150
#	15075
#	31350
#	48225
#	64350
#	81600
#	97575
#	112950
#	126825
#	142650
#	159600
#	179250
#	196050
#	211200
#	225675
#	242025
#	258675
#
# Disc length: 3678 seconds
#
# Revision: 2
# Processed by: cddbd v1.5.2PL0 Copyright (c) Steve Scherf et al.
# Submitted via: audiograbber 1.83.01
#
DISCID=da0e5c11
DTITLE=Alabama - BS8317
DYEAR=2008
DGENRE=Karaoke
TTITLE0=Alabama - Born Country
TTITLE1=Alabama - Christmas In Dixie
TTITLE2=Alabama - Dixieland Delight
TTITLE3=Alabama - Down Home
TTITLE4=Alabama - Fire In The Night
TTITLE5=Alabama - Forever's As Far As I'll Go
TTITLE6=Alabama - Forty Hour Week
TTITLE7=Alabama - Here We Are
TTITLE8=Alabama - If I Had You
TTITLE9=Alabama - Jukebox In My Mind
TTITLE10=Alabama - My Home's In Alabama
TTITLE11=Alabama - Roll On Eighteen Wheeler
TTITLE12=Alabama - Song Of The South
TTITLE13=Alabama - Southern Star
TTITLE14=Alabama - Tennessee River
TTITLE15=Alabama - Closer You Get, The
TTITLE16=Alabama - Then Again
EXTD=
EXTT0=
EXTT1=
EXTT2=
EXTT3=
EXTT4=
EXTT5=
EXTT6=
EXTT7=
EXTT8=
EXTT9=
EXTT10=
EXTT11=
EXTT12=
EXTT13=
EXTT14=
EXTT15=
EXTT16=
PLAYORDER=
